# xmcd
#
# Track frame offsets: 
#        150
#        14201
#        28638
#        38714
#        50900
#        60831
#        73746
#        82554
#        95092
#        106004
#        115578
#        127098
#        137987
#        147610
#        158750
#        174815
#        189034
#        202070
#        213537
#        223501
#
# Disc length: 3193 seconds
#
# Revision: 0
# Processed by: cddbd v1.5.2PL0 Copyright (c) Steve Scherf et al.
# Submitted via: ExactAudioCopy v1.3
#
DISCID=1f0c7714
DTITLE=The Mike Eldred Trio - Elvis Unleaded
DYEAR=2012
DGENRE=Blues, Americana
TTITLE0=Burning Love
TTITLE1=I Feel So Bad
TTITLE2=Rip It Up
TTITLE3=Don't
TTITLE4=Bossa Nova Baby
TTITLE5=Little Egypt
TTITLE6=You're So Square (Baby I Don't Care)
TTITLE7=Love Me
TTITLE8=Lawdy Miss Clawdy
TTITLE9=Treat Me Nice
TTITLE10=Girls, Girls, Girls
TTITLE11=Jailhouse Rock
TTITLE12=She's Not You
TTITLE13=Long Tall Sally
TTITLE14=Big Boss Man
TTITLE15=One Night of Sin
TTITLE16=Witchcraft
TTITLE17=Heartbreak Hotel
TTITLE18=King Creole
TTITLE19=T-R-O-U-B-L-E
EXTD=
EXTT0=
EXTT1=
EXTT2=
EXTT3=
EXTT4=
EXTT5=
EXTT6=
EXTT7=
EXTT8=
EXTT9=
EXTT10=
EXTT11=
EXTT12=
EXTT13=
EXTT14=
EXTT15=
EXTT16=
EXTT17=
EXTT18=
EXTT19=
PLAYORDER=
